<svg xmlns="http://www.w3.org/2000/svg" width="14" height="14" viewBox="0 0 14 14"><symbol viewBox="-502 -3550 984 4000"><path opacity=".2" fill="#3081FF" d="M482-3550h-984V450h984z"/><path opacity=".8" fill="#3081FF" d="M-462-3550h-40V450h40zM482-3550h-40V450h40z"/><path opacity=".3" fill="#3081FF" d="M-405-3550h-57V450h57z"/><path opacity=".5" fill="#3081FF" d="M-328-3550h-57V450h57z"/><path opacity=".3" fill="#3081FF" d="M-251-3550h-57V450h57z"/><path opacity=".5" fill="#3081FF" d="M-174-3550h-57V450h57z"/><path opacity=".3" fill="#3081FF" d="M-97-3550h-57V450h57z"/><path opacity=".5" fill="#3081FF" d="M-20-3550h-57V450h57z"/><path opacity=".3" fill="#3081FF" d="M57-3550H0V450h57z"/><path opacity=".5" fill="#3081FF" d="M134-3550H77V450h57z"/><path opacity=".3" fill="#3081FF" d="M211-3550h-57V450h57z"/><path opacity=".5" fill="#3081FF" d="M288-3550h-57V450h57z"/><path opacity=".3" fill="#3081FF" d="M365-3550h-57V450h57z"/><path opacity=".5" fill="#3081FF" d="M442-3550h-57V450h57z"/></symbol><g><circle fill="#DD4814" cx="7" cy="7" r="7"/><path fill="#fff" d="M6.1 10.813L2.41 8.105l1.184-1.613L5.9 8.187l4.393-4.394 1.414 1.414z"/></g></svg>