<svg baseProfile="full" xmlns="http://www.w3.org/2000/svg" width="16" height="16"><path fill="#dd4713" fill-rule="evenodd" d="M12.74 11.542c.32 0 .64.132.863.362l1.787 1.787c.87.87.752.996.026 1.722-.727.725-.903.842-1.722-.026L11.907 13.6c-.297-.292-.407-.74-.312-1.143l-.36-.36c-1.19 1-2.705 1.626-4.378 1.626C3.077 13.723 0 10.645 0 6.86 0 3.08 3.076 0 6.857 0c3.78 0 6.857 3.078 6.857 6.86 0 1.67-.622 3.182-1.616 4.373l.356.355c.093-.024.188-.045.285-.046zm-5.883-9.41c-2.603 0-4.722 2.122-4.722 4.73 0 2.607 2.12 4.728 4.722 4.728 2.604 0 4.722-2.12 4.722-4.73 0-2.606-2.12-4.727-4.723-4.727z"/></svg>