<svg xmlns="http://www.w3.org/2000/svg" width="90" height="90" viewBox="0 0 90 90.000001"><g><g><g transform="translate(-174 -3122.362)" color="#000"><path opacity=".05" fill="none" stroke-width="2" overflow="visible" enable-background="accumulate" d="M174 3122.362v90h90v-90z"/><ellipse ry="29.052" rx="29.004" cy="-1772.279" cx="2632.804" transform="matrix(-.5 .866 -.866 -.5 0 0)" overflow="visible" fill="none" stroke="#808080" stroke-width="12" enable-background="accumulate"/><path d="M226 3124.347l-14 2.09v13.954h14v-16.042z" fill="#808080" stroke-width="2" overflow="visible" enable-background="accumulate"/><path d="M251.37 3139.677l-10.783-8.93-9.612 11.455 10.724 8.998 9.67-11.523z" fill="#808080" stroke-width="2" overflow="visible" enable-background="accumulate"/><path d="M261.592 3166.96l-2.52-13.772-14.726 2.597 2.43 13.787 14.816-2.612z" fill="#808080" stroke-width="2" overflow="visible" enable-background="accumulate"/><path d="M251.886 3194.432l6.922-12.17-12.95-7.476-7 12.124 13.028 7.522z" fill="#808080" stroke-width="2" overflow="visible" enable-background="accumulate"/><path d="M226.792 3209.238l13.125-4.873-5.114-14.052-13.156 4.788 5.145 14.137z" fill="#808080" stroke-width="2" overflow="visible" enable-background="accumulate"/><path d="M198.052 3204.45l13.187 4.703 5.113-14.052-13.156-4.787-5.145 14.136z" fill="#808080" stroke-width="2" overflow="visible" enable-background="accumulate"/><path d="M179.114 3182.308l7.078 12.08 12.95-7.478-7-12.124-13.028 7.52z" fill="#808080" stroke-width="2" overflow="visible" enable-background="accumulate"/><path d="M178.84 3153.173l-2.344 13.803 14.727 2.596 2.43-13.787-14.814-2.612z" fill="#808080" stroke-width="2" overflow="visible" enable-background="accumulate"/><path d="M197.356 3130.677l-10.667 9.068 9.61 11.455 10.725-9-9.67-11.522z" fill="#808080" stroke-width="2" overflow="visible" enable-background="accumulate"/></g></g></g></svg>