<?xml version="1.0" encoding="utf-8"?>
<svg xmlns="http://www.w3.org/2000/svg" width="24" height="24" viewBox="0 0 96 96.000001">
  <path color="#000" overflow="visible" fill="none" d="M96 0v96H0V0z"/>
  <g style="line-height:125%;-inkscape-font-specification:Ubuntu;text-align:end" font-size="48.036" font-family="Ubuntu" letter-spacing="0" word-spacing="0" text-anchor="end" fill="gray">
    <path d="M43.74 45.264q0 1.73-.722 3.362-.672 1.584-1.825 3.17-1.152 1.536-2.593 3.073-1.44 1.488-2.882 2.93l-1.92 1.92q-1.057 1.104-2.018 2.305-.96 1.2-1.633 2.305-.624 1.105-.624 1.92h15.32v3.795h-20.17q-.05-.288-.05-.576v-.53q0-2.257.722-4.178.768-1.97 1.97-3.698 1.2-1.73 2.688-3.265 1.49-1.538 2.93-2.98 1.2-1.152 2.257-2.256 1.105-1.153 1.92-2.258.866-1.152 1.346-2.353.528-1.2.528-2.545 0-1.44-.48-2.45-.432-1.008-1.2-1.68-.77-.673-1.826-.96-1.008-.337-2.16-.337-1.394 0-2.546.385-1.153.384-2.065.912-.913.48-1.537 1.057-.625.528-.96.817L24 39.98q.432-.48 1.297-1.152.864-.72 2.065-1.345 1.2-.624 2.69-1.056 1.488-.432 3.217-.432 5.234 0 7.827 2.45 2.642 2.4 2.642 6.82zM57.976 49.586q7.252.288 10.614 3.17Q72 55.636 72 60.584q0 2.21-.768 4.082-.72 1.873-2.258 3.218-1.488 1.345-3.794 2.113-2.305.77-5.475.77-1.248 0-2.545-.193t-2.4-.48q-1.106-.29-1.97-.577-.865-.288-1.25-.48l.865-3.89q.817.384 2.642 1.008 1.873.624 4.562.624 2.16 0 3.6-.48 1.49-.48 2.403-1.298.912-.816 1.296-1.873.43-1.105.43-2.306 0-1.825-.623-3.218-.624-1.44-2.21-2.4-1.584-.96-4.225-1.442-2.642-.528-6.676-.528.288-2.353.432-4.418.192-2.066.336-4.035.144-1.97.24-3.89.097-1.97.193-4.13h16.04v3.794h-12.15q-.048.72-.144 1.97-.096 1.2-.192 2.545-.096 1.296-.192 2.545-.096 1.25-.192 1.97z"/>
   </g>
   <path style="line-height:normal;text-indent:0;text-align:start;text-decoration-line:none;text-decoration-style:solid;text-decoration-color:#000000;text-transform:none;block-progression:tb;isolation:auto;mix-blend-mode:normal" d="M23.977 8.002c-5.033.058-8.716-.12-11.727 1.54-1.506.832-2.697 2.237-3.355 3.99-.66 1.756-.897 3.838-.897 6.468v56c0 2.63.238 4.714.897 6.47.658 1.753 1.85 3.156 3.355 3.987 3.01 1.66 6.694 1.485 11.727 1.543H72.02c5.034-.058 8.717.118 11.728-1.543 1.506-.83 2.697-2.234 3.356-3.988.658-1.756.896-3.84.896-6.47V48.002h-4.002V76c0 2.37-.25 4.023-.64 5.063s-.81 1.487-1.544 1.892c-1.464.808-4.778.986-9.816 1.045H24c-5.04-.06-8.352-.237-9.816-1.045-.734-.405-1.153-.853-1.543-1.892C12.25 80.023 12 78.37 12 76V32c0-2.37.25-4.023.64-5.062.39-1.04.81-1.488 1.544-1.893 1.467-.81 4.783-.987 9.837-1.045H72c5.038.06 8.352.237 9.816 1.045.734.405 1.153.853 1.543 1.893.39 1.04.64 2.692.64 5.062v16H88V20c0-2.63-.238-4.712-.896-6.467-.66-1.754-1.85-3.16-3.356-3.99-3.01-1.66-6.694-1.483-11.727-1.54H72V16h-6V8.002H30V16h-6V8.002h-.022z" color="#000" font-family="sans-serif" white-space="normal" overflow="visible" solid-color="#000000" fill="gray"/>
   <path d="M30 0l-6 1v7h6V0zm42 0l-6 1v7h6V0z" color="#000" overflow="visible" fill="gray"/>
</svg>
