<?xml version="1.0" encoding="utf-8"?>
<svg xmlns="http://www.w3.org/2000/svg" width="24" height="24" viewBox="0 0 96 96.000001">
  <g color="#000">
    <path overflow="visible" fill="none" d="M96 0v96H0V0z"/>
    <path d="M84.93 14.958L67.965 31.934c3.76 1.4 7.71 2.708 11.842 3.925C83.92 37.046 87.984 38.094 92 39c-.936-3.985-2-8.035-3.187-12.147-1.217-4.136-2.51-8.1-3.882-11.894zM11.035 81L28 64.024c-3.76-1.4-7.71-2.708-11.842-3.925-4.113-1.19-8.177-2.237-12.193-3.142.936 3.985 2 8.035 3.187 12.147 1.217 4.136 2.51 8.1 3.882 11.894z" overflow="visible" fill="gray"/>
    <path style="line-height:normal;font-variant-ligatures:normal;font-variant-position:normal;font-variant-caps:normal;font-variant-numeric:normal;font-variant-alternates:normal;font-feature-settings:normal;text-indent:0;text-align:start;text-decoration-line:none;text-decoration-style:solid;text-decoration-color:#000000;text-transform:none;text-orientation:mixed;shape-padding:0;isolation:auto;mix-blend-mode:normal" d="M48 8C25.932 8 8 25.932 8 48c0 .652.02 1.3.05 1.945 1.356.336 2.717.686 4.083 1.053C12.05 50.008 12 49.01 12 48c0-19.906 16.094-36 36-36 13.005 0 24.38 6.872 30.705 17.186l2.86-2.862C74.444 15.31 62.076 8 48 8zm35.863 36.97c.084 1 .137 2.008.137 3.03 0 19.906-16.094 36-36 36-13.025 0-24.416-6.892-30.736-17.232l-2.88 2.88C21.512 80.682 33.908 88 48 88c22.068 0 40-17.932 40-40a2 2 0 0 0-.04-.406c-.006-.532-.032-1.058-.058-1.584-1.34-.332-2.687-.68-4.04-1.04z" font-family="sans-serif" white-space="normal" overflow="visible" solid-color="#000000" fill="gray"/>
  </g>
</svg>
