<?xml version="1.0" encoding="utf-8"?>
<svg xmlns="http://www.w3.org/2000/svg" width="24" height="24" viewBox="0 0 96 96.000001">
  <g color="#000">
    <path overflow="visible" fill="none" d="M96 0v96H0V0z"/>
    <path style="line-height:normal;font-variant-ligatures:none;font-variant-position:normal;font-variant-caps:normal;font-variant-numeric:normal;font-variant-alternates:normal;font-feature-settings:normal;text-indent:0;text-align:start;text-decoration-line:none;text-decoration-style:solid;text-decoration-color:#000000;text-transform:none;block-progression:tb;shape-padding:0;isolation:auto;mix-blend-mode:normal" d="M48 6C24.828 6 6 24.83 6 48s18.828 41.998 42 41.998S90 71.17 90 48C90 24.83 71.172 6 48 6zm0 4c21.01 0 37.998 16.99 37.998 38 0 9.324-3.35 17.852-8.908 24.46-1.21-2.786-2.853-5.3-4.94-7.495-1.955-2.062-4.308-3.79-7.017-5.192-1.144 1.007-2.388 1.9-3.697 2.682 3.188 1.365 5.775 3.117 7.81 5.264h.002c2.162 2.274 3.75 4.902 4.81 7.94C67.26 82.07 58.1 86 48 86c-10.135 0-19.325-3.96-26.133-10.412 1.123-3.013 2.706-5.623 4.78-7.875 2.208-2.328 5.055-4.2 8.626-5.606 3.507-1.38 7.732-2.106 12.696-2.11L48 60c2.886 0 5.613-.508 8.12-1.54l.017-.01.017-.01c2.49-1.078 4.66-2.615 6.45-4.575 1.84-1.96 3.258-4.302 4.242-6.967.994-2.693 1.476-5.672 1.476-8.898v-.002c0-3.18-.484-6.132-1.476-8.822-.98-2.706-2.397-5.073-4.24-7.037-1.79-1.966-3.973-3.483-6.47-4.515C53.623 16.54 50.89 16 48 16c-2.892 0-5.624.54-8.135 1.625-2.5 1.032-4.7 2.543-6.54 4.5l-.01.012-.01.01c-1.792 1.968-3.176 4.333-4.155 7.037l-.002.004c-.99 2.686-1.47 5.634-1.47 8.81 0 3.226.48 6.207 1.474 8.9.98 2.657 2.366 4.993 4.153 6.954l.01.01.01.01c1.23 1.308 2.622 2.424 4.152 3.345-1.274.325-2.5.71-3.668 1.17-4.03 1.587-7.416 3.776-10.074 6.58l-.01.012-.01.01c-2.007 2.177-3.62 4.66-4.855 7.41-5.527-6.598-8.858-15.104-8.858-24.4 0-21.01 16.99-38 37.998-38zm0 9.998c2.408 0 4.573.438 6.562 1.3l.018.01.016.006c1.995.823 3.66 1.983 5.066 3.526l.01.012.01.01c1.453 1.548 2.587 3.42 3.406 5.685l.002.008.004.006c.81 2.195 1.226 4.662 1.226 7.44 0 2.83-.418 5.323-1.226 7.514-.818 2.216-1.953 4.07-3.412 5.623l-.01.01-.01.013c-1.408 1.546-3.083 2.735-5.086 3.606C52.584 55.583 50.412 56 48 56c-2.413 0-4.586-.416-6.578-1.234-2.003-.87-3.707-2.067-5.168-3.62-1.412-1.553-2.528-3.41-3.348-5.632-.808-2.19-1.226-4.684-1.226-7.514 0-2.778.417-5.245 1.226-7.44l.002-.005.004-.008c.82-2.27 1.936-4.147 3.342-5.693 1.46-1.55 3.155-2.717 5.15-3.54l.016-.007.017-.008c1.99-.864 4.156-1.302 6.563-1.302z" font-family="sans-serif" white-space="normal" overflow="visible" solid-color="#000000" fill="gray"/>
  </g>
jj</svg>
