<?xml version="1.0" encoding="utf-8"?>
<!-- Generator: Adobe Illustrator 16.0.4, SVG Export Plug-In . SVG Version: 6.00 Build 0)  -->
<!DOCTYPE svg PUBLIC "-//W3C//DTD SVG 1.1//EN" "http://www.w3.org/Graphics/SVG/1.1/DTD/svg11.dtd">
<svg version="1.1" id="Layer_1" xmlns="http://www.w3.org/2000/svg" xmlns:xlink="http://www.w3.org/1999/xlink" x="0px" y="0px"
	 width="256px" height="256px" viewBox="0 0 256 256" enable-background="new 0 0 256 256" xml:space="preserve">
<path fill="#FFFFFF" d="M128,0C57.4,0,0,57.4,0,128s57.4,128,128,128s128-57.4,128-128S198.6,0,128,0z M152.4,52.4
	C156.6,45,166,42.6,173.4,46.8s9.799,13.601,5.6,21c-4.199,7.4-13.6,9.8-21,5.601C150.6,69.2,148,59.8,152.4,52.4z M48.2,143.4
	c-8.4,0-15.4-7-15.4-15.4s6.8-15.4,15.4-15.4c8.6,0,15.399,6.801,15.399,15.4C63.6,136.4,56.6,143.4,48.2,143.4z M61.8,144.801
	c4.8-4,8-10,8-16.801c0-6.8-3-12.8-8-16.8C66,95,76,81.4,89.4,72.4L100.6,91.2c-11.6,8.2-19,21.6-19,36.8
	c0,15.199,7.601,28.6,19,36.801L89.4,183.6C76,174.6,66,160.801,61.8,144.801z M173.4,209.199c-7.4,4.201-16.801,1.801-21-5.6
	c-4.201-7.4-1.801-16.799,5.6-21c7.4-4.199,16.801-1.799,21,5.6C183.199,195.6,180.801,205,173.4,209.199z M173.4,175.6
	c-5.801-2.199-12.6-2-18.4,1.4s-9.6,9-10.4,15.199c-5.6,1.602-11.6,2.4-17.8,2.4c-10.6,0-20.6-2.4-29.6-7l10.6-19.199
	c5.8,2.799,12.2,4.199,19,4.199c23.399,0,42.8-18,44.8-40.799l22,0.398C192,149.199,184.6,164.4,173.4,175.6z M171.199,124
	c-2-23-21.199-41-44.799-41c-6.801,0-13.2,1.4-19,4.2L96.8,68c9-4.4,19-7,29.601-7c6.199,0,12.199,0.8,17.799,2.4
	c1,6.199,4.602,11.8,10.4,15.199C160.4,82,167.199,82.4,173,80c11.4,11.2,18.801,26.4,19.801,43.4L171.199,124z"/>
</svg>
