<?xml version="1.0" encoding="UTF-8" standalone="no"?>
<svg xmlns="http://www.w3.org/2000/svg" height="284px" width="284px" version="1.1" xmlns:xlink="http://www.w3.org/1999/xlink" viewBox="0 0 284 284"><!-- Generator: Sketch 40.3 (33839) - http://www.bohemiancoding.com/sketch -->
 <title>snapweb_default_icon</title>
 <desc>Created with Sketch.</desc>
 <g id="Page-1" fill-rule="evenodd" fill="none">
  <g id="snapweb_default_icon">
   <g id="logo-ubuntu_cof-black-hex">
    <path id="Shape" fill="#CDCDCD" d="m283.46 141.73c0 78.28-63.45 141.73-141.73 141.73-78.276 0-141.73-63.45-141.73-141.73 0-78.275 63.453-141.73 141.73-141.73 78.28 0 141.73 63.455 141.73 141.73z"/>
    <path id="Shape" fill="#fff" d="m45.356 122.81c-10.453 0-18.923 8.47-18.923 18.93 0 10.44 8.47 18.92 18.923 18.92 10.449 0 18.92-8.48 18.92-18.92 0-10.46-8.47-18.93-18.92-18.93zm135.1 86c-9.05 5.23-12.15 16.8-6.92 25.84 5.22 9.05 16.79 12.15 25.84 6.93s12.15-16.79 6.92-25.84c-5.22-9.05-16.79-12.15-25.84-6.93zm-94.002-67.08c0-18.7 9.293-35.22 23.502-45.219l-13.832-23.173c-16.56 11.064-28.878 27.982-33.995 47.792 5.977 4.87 9.796 12.29 9.796 20.6 0 8.32-3.819 15.74-9.797 20.61 5.116 19.81 17.435 36.72 33.995 47.79l13.833-23.18c-14.209-10-23.502-26.51-23.502-45.22zm55.272-55.273c28.88 0 52.57 22.143 55.05 50.373l26.97-0.39c-1.33-20.85-10.43-39.566-24.43-53.323-7.19 2.718-15.5 2.306-22.68-1.842-7.2-4.152-11.71-11.156-12.95-18.757-6.99-1.935-14.35-2.99-21.96-2.99-13.08 0-25.45 3.072-36.43 8.512l13.15 23.56c7.08-3.293 14.96-5.143 23.28-5.143zm0 110.55c-8.32 0-16.2-1.85-23.28-5.15l-13.15 23.57c10.98 5.43 23.35 8.51 36.43 8.51 7.61 0 14.97-1.06 21.96-2.99 1.24-7.6 5.75-14.61 12.95-18.76 7.18-4.15 15.49-4.56 22.68-1.84 14-13.76 23.1-32.48 24.43-53.32l-26.97-0.39c-2.48 28.23-26.17 50.37-55.05 50.37zm38.73-122.36c9.05 5.227 20.62 2.126 25.84-6.921 5.23-9.051 2.13-20.619-6.92-25.845-9.05-5.224-20.62-2.124-25.84 6.927-5.23 9.047-2.13 20.616 6.92 25.839z"/>
   </g>
  </g>
 </g>
</svg>
