<?xml version="1.0" encoding="utf-8"?>
<!-- Generator: Adobe Illustrator 16.0.4, SVG Export Plug-In . SVG Version: 6.00 Build 0)  -->
<!DOCTYPE svg PUBLIC "-//W3C//DTD SVG 1.1//EN" "http://www.w3.org/Graphics/SVG/1.1/DTD/svg11.dtd">
<svg version="1.1" id="Layer_1" xmlns="http://www.w3.org/2000/svg" xmlns:xlink="http://www.w3.org/1999/xlink" x="0px" y="0px"
	 width="256px" height="256px" viewBox="0 0 256 256" enable-background="new 0 0 256 256" xml:space="preserve">
<path fill="#FFFFFF" d="M128,64c-35.3,0-64,28.7-64,64c0,35.3,28.7,64,64,64c35.3,0,64-28.7,64-64C192,92.7,163.3,64,128,64z
	 M140.2,90.2c2.1-3.7,6.8-4.9,10.5-2.8c3.7,2.1,4.9,6.8,2.8,10.5c-2.1,3.7-6.8,4.9-10.5,2.8C139.3,98.6,138,93.9,140.2,90.2z
	 M88.1,135.7c-4.2,0-7.7-3.5-7.7-7.7c0-4.2,3.4-7.7,7.7-7.7c4.3,0,7.7,3.4,7.7,7.7C95.8,132.2,92.3,135.7,88.1,135.7z M94.9,136.4
	c2.4-2,4-5,4-8.4c0-3.4-1.5-6.4-4-8.4c2.1-8.1,7.1-14.9,13.8-19.4l5.6,9.4c-5.8,4.1-9.5,10.8-9.5,18.4c0,7.6,3.8,14.3,9.5,18.4
	l-5.6,9.4C102,151.3,97,144.4,94.9,136.4z M150.7,168.6c-3.7,2.1-8.4,0.9-10.5-2.8c-2.1-3.7-0.9-8.4,2.8-10.5
	c3.7-2.1,8.4-0.9,10.5,2.8C155.6,161.8,154.4,166.5,150.7,168.6z M150.7,151.8c-2.9-1.1-6.3-1-9.2,0.7c-2.9,1.7-4.8,4.5-5.2,7.6
	c-2.8,0.8-5.8,1.2-8.9,1.2c-5.3,0-10.3-1.2-14.8-3.5l5.3-9.6c2.9,1.4,6.1,2.1,9.5,2.1c11.7,0,21.4-9,22.4-20.4l11,0.2
	C160,138.6,156.3,146.2,150.7,151.8z M149.6,126c-1-11.5-10.6-20.5-22.4-20.5c-3.4,0-6.6,0.7-9.5,2.1l-5.3-9.6
	c4.5-2.2,9.5-3.5,14.8-3.5c3.1,0,6.1,0.4,8.9,1.2c0.5,3.1,2.3,5.9,5.2,7.6c2.9,1.7,6.3,1.9,9.2,0.7c5.7,5.6,9.4,13.2,9.9,21.7
	L149.6,126z"/>
</svg>
