<svg xmlns:svg="http://www.w3.org/2000/svg" xmlns="http://www.w3.org/2000/svg" version="1.1" id="svg3336" x="0" y="0" width="512.4" height="512" viewBox="0 0 512.4 512" enable-background="new 0 0 512.4 512" xml:space="preserve">
  <g id="layer3">
    <linearGradient id="rect4158_1_" gradientUnits="userSpaceOnUse" x1="172" y1="472.48" x2="172" y2="-3.52" gradientTransform="matrix(1 0 0 -1.0756 84 508.2153)">
      <stop offset="0" stop-color="#EAEAEA"/>
      <stop offset="1" stop-color="#F4F4F4"/>
    </linearGradient>
    <rect id="rect4158" fill="url(#rect4158_1_)" width="512" height="512"/>
    <path id="path3" opacity="0.1" enable-background="new    " d="M256 112c-79.53 0-144 64.47-144 144C112 335.53 176.47 400 256 400c79.53 0 144-64.47 144-144C400 176.47 335.53 112 256 112zM305.48 151.98c3.1 0.08 6.22 0.91 9.1 2.57 9.2 5.31 12.34 17.07 7.03 26.26 -5.31 9.2-17.06 12.34-26.25 7.03 -9.19-5.3-12.34-17.06-7.04-26.25C291.96 155.27 298.66 151.8 305.48 151.98zM256 172.48c7.73 0 15.21 1.07 22.31 3.04 1.25 7.73 5.84 14.84 13.15 19.06 7.3 4.21 15.74 4.63 23.05 1.87 14.22 13.98 23.47 32.99 24.81 54.17l-27.39 0.4c-2.53-28.69-26.6-51.18-55.93-51.18 -8.45 0-16.47 1.88-23.65 5.23l-13.36-23.94C230.14 175.6 242.71 172.48 256 172.48zM209.67 186.51l14.06 23.54c-14.44 10.16-23.88 26.95-23.88 45.95 0 19 9.44 35.78 23.88 45.94l-14.06 23.55c-16.83-11.24-29.34-28.43-34.54-48.55 6.07-4.95 9.95-12.49 9.95-20.94 0-8.45-3.88-15.99-9.95-20.94C180.33 214.94 192.85 197.75 209.67 186.51zM158.09 236.77c10.62 0 19.22 8.61 19.22 19.23 0 10.62-8.6 19.22-19.22 19.22 -10.62 0-19.23-8.6-19.23-19.22C138.85 245.38 147.46 236.77 158.09 236.77zM311.93 260.98l27.4 0.4c-1.35 21.18-10.6 40.19-24.81 54.17 -7.31-2.76-15.75-2.35-23.05 1.87 -7.31 4.23-11.89 11.34-13.15 19.06 -7.1 1.97-14.58 3.04-22.31 3.04 -13.29 0-25.85-3.12-37.01-8.65l13.36-23.94c7.19 3.34 15.2 5.23 23.65 5.23C285.34 312.16 309.41 289.67 311.93 260.98zM304.45 321.58c6.82-0.18 13.51 3.29 17.16 9.61 5.31 9.2 2.16 20.95-7.03 26.25 -9.2 5.31-20.95 2.16-26.25-7.04 -5.31-9.19-2.16-20.94 7.04-26.25C298.23 322.49 301.35 321.66 304.45 321.58z"/>
  </g>
  <g id="layer5" transform="translate(0,18)">
    <path id="rect4209" opacity="0.3" fill="#FFFFFF" enable-background="new    " d="M256 238L108.2 494H512V238H389.28 256z"/>
    <path id="rect4302" opacity="0.15" fill="#FFFFFF" enable-background="new    " d="M0-18v512h108.2l76.39-132.31L256 238l-68.91-120 -0.19 0.32L108.2-18H0z"/>
  </g>
  <g id="layer4">
    <path id="path812" display="none" fill="#FFFFFF" stroke="#CCCCCC" stroke-width="4" d="M-208.32 605.62c-7.84 0-14.55 5.03-17.32 12.19 -0.06 0-0.12 0-0.18 0 -7.09 0-12.83 6-12.83 13.41s5.75 13.41 12.83 13.41h17.5 16.33c5.16 0 9.33-4.36 9.33-9.75 0-4.54-2.97-8.36-7-9.44 0-0.1 0-0.2 0-0.3C-189.65 614.35-198.01 605.62-208.32 605.62z"/>
    <path id="path4340" display="none" fill="none" stroke="#CCCCCC" stroke-width="4" d="M288.87 828.08c-6.35 0-11.78 4.07-14.02 9.87 -0.05 0-0.1 0-0.15 0 -5.74 0-10.39 4.86-10.39 10.85 0 6 4.65 10.85 10.39 10.85h14.17 13.23c4.17 0 7.56-3.53 7.56-7.89 0-3.68-2.41-6.77-5.67-7.65 0-0.08 0-0.16 0-0.25C303.98 835.15 297.21 828.09 288.87 828.08L288.87 828.08z"/>
  </g>
  <g id="layer1" transform="translate(0,-558.36218)" display="none">
    <path id="path3774" display="inline" fill="#0000FF" fill-opacity="0.08" stroke="#0000FF" d="M166.05 576.36h179.89C491.24 576.36 512 597.1 512 742.26v144.2c0 145.16-20.76 165.9-166.05 165.9H166.05C20.76 1052.36 0 1031.63 0 886.46V742.26C0 597.1 20.76 576.36 166.05 576.36z"/>
    <circle id="path4118" display="inline" fill="#0000FF" fill-opacity="0.08" stroke="#0000FF" stroke-width="0.83" cx="256" cy="814.36" r="144"/>
    <rect id="rect4152" x="120" y="678.36" display="inline" fill="#0000FF" fill-opacity="0.08" stroke="#0000FF" stroke-linecap="round" stroke-linejoin="round" width="272" height="272"/>
    <rect id="rect4154" x="104" y="694.36" display="inline" fill="#0000FF" fill-opacity="0.08" stroke="#0000FF" stroke-linecap="round" stroke-linejoin="round" width="304" height="240"/>
    <rect id="rect4156" x="136" y="662.36" display="inline" fill="#0000FF" fill-opacity="0.08" stroke="#0000FF" stroke-linecap="round" stroke-linejoin="round" width="240" height="304"/>
  </g>
</svg>
