<?xml version="1.0" encoding="utf-8"?>
<!-- Generator: Adobe Illustrator 16.0.4, SVG Export Plug-In . SVG Version: 6.00 Build 0)  -->
<!DOCTYPE svg PUBLIC "-//W3C//DTD SVG 1.1//EN" "http://www.w3.org/Graphics/SVG/1.1/DTD/svg11.dtd">
<svg version="1.1" id="Layer_2" xmlns="http://www.w3.org/2000/svg" xmlns:xlink="http://www.w3.org/1999/xlink" x="0px" y="0px"
	 width="285px" height="285px" viewBox="0 0 285 285" enable-background="new 0 0 285 285" xml:space="preserve">
<path fill="#FFFFFF" d="M270.475,144.479l14.528-3.572c-0.095-7.643-0.796-15.379-2.167-23.151
	c-1.364-7.737-3.339-15.215-5.849-22.4l-14.835,1.608c-4.896-12.86-11.804-24.726-20.342-35.213l8.829-12.07
	c-4.986-5.793-10.496-11.269-16.542-16.341c-6.019-5.05-12.337-9.509-18.879-13.4l-10.338,10.776
	c-11.724-6.557-24.583-11.32-38.212-13.925l-0.993-14.902C158.132,0.652,150.393,0,142.5,0c-7.857,0-15.563,0.646-23.075,1.87
	l-0.994,14.9c-13.631,2.594-26.494,7.348-38.223,13.895L69.868,19.886c-6.572,3.904-12.92,8.379-18.965,13.452
	c-6.02,5.051-11.508,10.499-16.475,16.264l8.826,12.066C34.708,72.15,27.791,84.012,22.884,96.867L8.046,95.259
	c-2.525,7.215-4.512,14.723-5.881,22.495c-1.365,7.738-2.067,15.44-2.166,23.049l14.525,3.572
	c0.201,14.013,2.652,27.479,7.011,40.057l-12.399,8.306c2.703,7.149,6.008,14.179,9.955,21.012
	c3.928,6.806,8.341,13.157,13.156,19.05l13.412-6.596c8.897,10.284,19.408,19.131,31.133,26.159l-4.164,14.347
	c6.666,3.738,13.716,7,21.132,9.697c7.383,2.688,14.848,4.717,22.323,6.136l6.031-13.665c6.639,1.063,13.446,1.623,20.385,1.623
	c6.903,0,13.676-0.554,20.282-1.605l6.033,13.668c7.51-1.422,15.006-3.455,22.422-6.155c7.383-2.687,14.404-5.931,21.044-9.649
	l-4.163-14.343c11.731-7.019,22.25-15.856,31.155-26.133l13.415,6.597c4.84-5.916,9.275-12.293,13.221-19.128
	c3.928-6.804,7.222-13.802,9.918-20.919l-12.396-8.303C267.801,171.955,270.263,158.49,270.475,144.479z M142.5,227.5
	c-46.9,0-85-38.1-85-85c0-46.9,38.1-85,85-85c46.9,0,85,38.1,85,85C227.5,189.4,189.4,227.5,142.5,227.5z"/>
</svg>
