<?xml version="1.0" encoding="utf-8"?>
<!DOCTYPE svg PUBLIC "-//W3C//DTD SVG 1.1//EN" "http://www.w3.org/Graphics/SVG/1.1/DTD/svg11.dtd">
<svg version="1.1" baseProfile="full" 
	xmlns="http://www.w3.org/2000/svg"
	xmlns:xlink="http://www.w3.org/1999/xlink"
	xmlns:ev="http://www.w3.org/2001/xml-events"
	width="16px" height="16px">
<path fill="rgb(221,71,19)" fill-rule="evenodd" d="M12.7389 11.5421 C13.0594 11.5406 13.3788 11.6743 13.6026 11.9039 C13.6026 11.9039 15.3899 13.6913 15.3899 13.6913 C16.2605 14.5608 16.1418 14.6861 15.4156 15.4116 C14.6893 16.1369 14.513 16.2542 13.6944 15.3859 C13.6944 15.3859 11.9068 13.5986 11.9068 13.5986 C11.6098 13.3084 11.4998 12.8592 11.5947 12.4567 C11.5947 12.4567 11.2352 12.0976 11.2352 12.0976 C10.0439 13.0966 8.52973 13.7225 6.85734 13.7225 C3.07628 13.7225 0.000279424 10.6448 0.000279424 6.86123 C0.000279424 3.07801 3.07628 4.49356e-005 6.85734 4.49356e-005 C10.6383 4.49356e-005 13.7143 3.07801 13.7143 6.86123 C13.7143 8.53055 13.0918 10.0421 12.0979 11.2329 C12.0979 11.2329 12.4539 11.5885 12.4539 11.5885 C12.5472 11.5637 12.642 11.5426 12.7389 11.5421 Z M6.85734 2.13295 C4.25366 2.13295 2.13536 4.25406 2.13536 6.86123 C2.13536 9.46864 4.25366 11.5898 6.85734 11.5898 C9.46097 11.5898 11.5792 9.46864 11.5792 6.86123 C11.5792 4.25406 9.46097 2.13295 6.85734 2.13295 Z"/>
</svg>